<?xml version="1.0" encoding="UTF-8"?>
<svg xmlns="http://www.w3.org/2000/svg" viewBox="0 0 459 448" width="459" height="448">
<path d="M212.26 0.07C224.14 0.07 236.02 0.07 247.9 0.07C248.21 0.72 260.64 1.95 262.61 1.98C268.42 2.04 280.01 4.95 285.48 6.87C286.6 7.27 287.93 6.79 289.08 7.08C292.42 7.9 296.03 8.99 299.36 10.08C314.53 15.06 329.15 21.78 343.51 29.21C349.07 32.09 354.09 36.18 359.59 39.2C360.7 39.8 361.32 41.18 362.42 41.79C369.47 45.74 375.04 51.87 381.74 56.33C387.55 60.21 393.75 68.15 398.79 73.23C417.09 91.64 436.69 123.65 444.87 147.6C447.35 154.88 449.3 162.32 451.84 169.57C452.71 172.04 452.34 174.86 453.11 177.33C454.87 183 455.36 189.01 456.86 194.75C457.65 197.77 457.02 200.88 457.89 203.83C458.63 206.29 456.94 215.05 458.93 216.05C458.93 223.34 458.93 230.63 458.93 237.93C457.06 238.77 458.53 248.45 457.84 251.01C456.53 255.86 456.89 260.93 455.95 265.9C454.89 271.43 453.49 277.09 452.08 282.53C451.53 284.68 451.68 287.15 450.87 289.22C448.44 295.43 447.39 302.19 444.76 308.43C440.96 317.43 437.26 326.44 432.81 335.36C427.69 345.58 420.46 354.54 414.74 364.42C412.84 367.7 409.68 370.31 407.69 373.51C406.61 375.24 404.58 376.31 403.42 377.95C399.5 383.53 394.11 388.27 389.21 393.13C374.87 407.38 359.22 418.21 342.24 428.12C335.9 431.82 329.61 435.66 322.65 437.92C314.07 440.71 295.2 454.14 288.33 441.57C285.38 436.18 286.97 417.82 286.97 410.78C286.97 382.53 291.72 352.41 272.13 330.43C274.99 328.58 278.27 329.77 281.37 328.79C287.57 326.84 294.39 326.87 300.58 324.73C306.5 322.69 312.52 320.98 318.46 318.74C325.61 316.05 331.94 311.24 338.57 307.72C340.07 306.92 340.9 304.96 342.39 304.12C352.42 298.43 362.19 281.79 366.14 271.58C367.74 267.45 369.61 263.51 370.9 259.28C372.76 253.14 374.05 246.15 374.96 239.85C375.33 237.28 374.68 234.58 375.12 232C379.38 206.53 372.66 172.36 353.09 154.59C354.99 151.68 355.16 148 356.1 144.75C359.56 132.85 359 117 355.12 105.31C354.34 102.93 353.2 94.23 350.7 93.17C347.01 91.62 340.57 93.06 337.09 93.87C334.64 94.44 332.28 94.41 329.86 95C328.64 95.3 327.52 96.4 326.32 96.8C318.14 99.53 309.85 102.78 302.36 107.17C298.63 109.36 291.96 115.39 287.86 115.95C285.36 116.29 282.59 114.57 280.3 114C275.36 112.78 270.06 111.88 265.08 110.99C263.47 110.7 261.75 111.16 260.13 110.88C252.87 109.63 245.82 109.11 238.19 108.89C234.76 108.79 231.66 107.61 228.26 107.98C227.15 108.1 226.5 108.77 225.36 108.84C220.66 109.12 215.53 108.23 210.9 108.99C205.11 109.94 198.7 110.27 193.08 111.89C190.05 112.77 186.63 112.13 183.6 113.05C181.14 113.79 173.98 116.61 171.58 115.87C167.84 114.71 161.37 109.19 157.54 107.1C150.71 103.37 143.73 99.97 136.56 97.09C133.71 95.95 130.61 95.73 127.71 94.79C122.86 93.23 114.83 91.28 109.5 93.09C106.63 94.07 105.88 103.09 104.84 105.46C100.87 114.52 100.84 135.23 103.85 144.68C104.88 147.91 104.93 151.71 106.91 154.59C97.03 163.57 91.73 178.6 87.14 190.38C86.19 192.83 86.72 195.79 85.86 198.26C82.52 207.78 83.66 222.41 84.91 232.4C85.59 237.83 85.52 242.61 86.92 247.73C87.24 248.89 86.75 250.2 87.08 251.34C92.17 268.51 98.41 284.88 111.78 298.18C114.3 300.7 116.64 303.45 119.68 305.19C122.81 306.99 125.28 309.97 128.47 311.74C139.65 317.93 151.42 322.39 163.71 325.79C164.8 326.09 166.04 325.63 167.14 325.97C170.87 327.13 174.96 327.95 178.72 328.83C181.62 329.5 185.47 328.32 187.81 330.49C178.82 334.36 174.43 352.15 172.8 360.53C151.86 367.97 137.83 370.43 118.26 357.53C112.26 353.58 108.18 346.13 104.86 340.27C98.65 329.33 78.43 315.91 65.79 318.91C63.9 319.36 62.09 320.48 60.22 321.13C59.83 321.9 59.45 322.68 59.06 323.45C61.33 325.97 63.12 329.76 66.29 331.64C73.1 335.66 80.36 341.05 84.65 348.07C87.5 352.73 90.33 357.36 92.84 362.22C94.54 365.53 95.4 369.14 97.14 372.41C102.95 383.31 115.18 393.03 126.54 396.75C136.72 400.08 149.6 401.04 160.79 399.81C164.02 399.46 169.7 397.23 172.8 398.06C174.47 406.63 173.02 418.41 173.02 427.34C173.02 432.52 173.8 438.36 171.86 443.11C170.74 445.87 166.6 446.43 165.98 447.76C162.95 447.76 159.93 447.76 156.9 447.76C156.35 446.49 148.34 444.59 146.39 443.64C136.57 438.84 126.37 434.77 116.54 429.63C111.97 427.24 108.12 423.35 103.58 421.02C96.52 417.39 90.74 411.75 84.13 407.36C82.44 406.24 81.38 404.18 79.7 403.08C70.13 396.86 50.58 375.17 44.31 365.62C34.74 351.03 24.54 336.39 18.12 320.15C14.45 310.86 11.39 301.52 8.11 292.15C6.76 288.3 6.5 284.13 5.14 280.3C4.15 277.51 4.76 274.26 3.92 271.47C2.49 266.78 1.81 261.39 1.05 256.49C0.74 254.43 2.05 248.79 0.07 247.88C0.07 235.91 0.07 223.93 0.07 211.95C2.39 210.88 0.28 204.6 1.31 202.28C2.4 199.86 1.45 197.32 2.13 194.75C3.92 188.02 4.79 180.97 6.91 174.37C7.6 172.19 7.35 169.77 8.09 167.59C11.6 157.21 15.18 146.73 19.19 136.49C22.6 127.8 27.85 119.7 32.2 111.48C36.37 103.61 42.92 97.05 47.3 89.31C48.1 87.88 49.88 87.08 50.72 85.7C52.97 82.04 56.16 78.3 59.25 75.2C71.33 63.05 83.33 50.36 97.75 41.69C98.74 41.09 99.32 39.86 100.33 39.27C112.16 32.31 123.73 24.41 136.49 19.19C143.42 16.36 150.59 13.92 157.53 11.17C159.42 10.42 161.33 10.43 163.26 9.92C165.8 9.26 168.22 7.89 170.76 7.12C171.93 6.77 173.24 7.25 174.38 6.91C181.13 4.96 188.45 2.82 195.56 2.04C199.66 1.59 203.47 0.98 207.56 0.98C209.09 0.98 211.34 1.51 212.26 0.07Z" fill="#181616" fill-rule="evenodd" stroke="#181616" stroke-width="0.25" stroke-linejoin="round"/>
</svg>